<svg width="256" height="256" viewBox="0 0 256 256" fill="none" xmlns="http://www.w3.org/2000/svg">
  <defs>
    <linearGradient id="batteryFill" x1="138" y1="34" x2="212" y2="34" gradientUnits="userSpaceOnUse">
      <stop stop-color="#8EEA43"/>
      <stop offset="1" stop-color="#56C91D"/>
    </linearGradient>
    <linearGradient id="metalBody" x1="127" y1="30" x2="229" y2="208" gradientUnits="userSpaceOnUse">
      <stop stop-color="#F8F8F6"/>
      <stop offset="0.45" stop-color="#B7B8BB"/>
      <stop offset="0.7" stop-color="#F4F4F2"/>
      <stop offset="1" stop-color="#7D7F84"/>
    </linearGradient>
    <linearGradient id="cellFill" x1="150" y1="58" x2="205" y2="58" gradientUnits="userSpaceOnUse">
      <stop stop-color="#A5F157"/>
      <stop offset="1" stop-color="#54D321"/>
    </linearGradient>
    <filter id="softShadow" x="78" y="18" width="156" height="212" filterUnits="userSpaceOnUse" color-interpolation-filters="sRGB">
      <feFlood flood-opacity="0" result="BackgroundImageFix"/>
      <feColorMatrix in="SourceAlpha" type="matrix" values="0 0 0 0 0 0 0 0 0 0 0 0 0 0 0 0 0 0 127 0" result="hardAlpha"/>
      <feOffset dx="6" dy="8"/>
      <feGaussianBlur stdDeviation="8"/>
      <feComposite in2="hardAlpha" operator="out"/>
      <feColorMatrix type="matrix" values="0 0 0 0 0.13 0 0 0 0 0.1 0 0 0 0 0.08 0 0 0 0.22 0"/>
      <feBlend mode="normal" in2="BackgroundImageFix" result="effect1_dropShadow_1_2"/>
      <feBlend mode="normal" in="SourceGraphic" in2="effect1_dropShadow_1_2" result="shape"/>
    </filter>
  </defs>

  <path d="M95 43C82 49 71 61 67 77C63 92 61 113 61 128C61 143 63 164 67 179C71 194 82 207 95 213C110 220 126 217 136 207V49C126 39 110 36 95 43Z" fill="#A9D85C"/>
  <path d="M89 56C79 66 74 84 73 128C74 172 79 190 89 200" stroke="#8F7A51" stroke-width="4" stroke-linecap="round"/>
  <path d="M103 52C94 57 87 68 84 82C80 98 79 114 79 128C79 142 80 158 84 174C87 188 94 199 103 204" stroke="#D8F4A6" stroke-width="5" stroke-linecap="round"/>
  <path d="M118 45C106 53 98 66 94 80C90 96 88 112 88 128C88 144 90 160 94 176C98 190 106 203 118 211" stroke="#34BDE4" stroke-width="4" stroke-linecap="round"/>
  <path d="M50 55C58 57 62 64 59 71" stroke="#2E54BE" stroke-width="4" stroke-linecap="round"/>
  <path d="M44 74C55 77 58 86 53 92" stroke="#34BDE4" stroke-width="4" stroke-linecap="round"/>
  <path d="M39 97C50 101 53 109 47 116" stroke="#2E54BE" stroke-width="4" stroke-linecap="round"/>
  <path d="M37 122C48 126 51 134 46 140" stroke="#34BDE4" stroke-width="4" stroke-linecap="round"/>
  <path d="M39 148C50 153 52 162 46 168" stroke="#2E54BE" stroke-width="4" stroke-linecap="round"/>
  <path d="M46 173C57 178 59 187 54 193" stroke="#34BDE4" stroke-width="4" stroke-linecap="round"/>
  <path d="M66 210C45 222 36 241 22 244" stroke="#34BDE4" stroke-width="7" stroke-linecap="round"/>
  <path d="M22 244C31 246 35 251 39 255" stroke="#2E54BE" stroke-width="7" stroke-linecap="round"/>
  <circle cx="96" cy="84" r="5" fill="#F4F8FB" stroke="#5C51B4" stroke-width="3"/>
  <circle cx="108" cy="102" r="4" fill="#F4F8FB" stroke="#5C51B4" stroke-width="3"/>
  <circle cx="100" cy="120" r="4" fill="#F4F8FB" stroke="#5C51B4" stroke-width="3"/>
  <circle cx="114" cy="137" r="4" fill="#F4F8FB" stroke="#5C51B4" stroke-width="3"/>
  <circle cx="96" cy="154" r="4" fill="#F4F8FB" stroke="#5C51B4" stroke-width="3"/>
  <path d="M102 111C112 119 116 126 111 134C107 141 97 140 94 131C91 122 98 117 108 121C120 126 123 138 116 147" stroke="#34BDE4" stroke-width="4" stroke-linecap="round" stroke-linejoin="round"/>

  <g filter="url(#softShadow)">
    <path d="M128 34C128 28.4772 132.477 24 138 24H196C201.523 24 206 28.4772 206 34V38H213C219.075 38 224 42.9249 224 49V192C224 198.075 219.075 203 213 203H128V34Z" fill="url(#metalBody)"/>
    <path d="M156 31H184C188.971 31 193 35.0294 193 40V42H147V40C147 35.0294 151.029 31 156 31Z" fill="#D6D7DA"/>
    <path d="M143 52H200C203.314 52 206 54.6863 206 58V74C206 77.3137 203.314 80 200 80H143V52Z" fill="url(#cellFill)"/>
    <path d="M143 84H200C203.314 84 206 86.6863 206 90V106C206 109.314 203.314 112 200 112H143V84Z" fill="url(#cellFill)"/>
    <path d="M143 116H200C203.314 116 206 118.686 206 122V138C206 141.314 203.314 144 200 144H143V116Z" fill="url(#cellFill)"/>
    <path d="M143 148H200C203.314 148 206 150.686 206 154V170C206 173.314 203.314 176 200 176H143V148Z" fill="url(#cellFill)"/>
    <path d="M144 51C148 62 148 165 144 176" stroke="#4D4E53" stroke-width="3"/>
    <path d="M198 52C192 58 191 74 198 80" stroke="#4D4E53" stroke-width="3"/>
    <path d="M198 84C191 90 191 106 198 112" stroke="#4D4E53" stroke-width="3"/>
    <path d="M198 116C191 122 191 138 198 144" stroke="#4D4E53" stroke-width="3"/>
    <path d="M198 148C191 154 191 170 198 176" stroke="#4D4E53" stroke-width="3"/>
  </g>

  <path d="M172 86L151 119H167L159 143L187 111H171L180 86H172Z" fill="#34BDE4" stroke="#4B5DCE" stroke-width="3" stroke-linejoin="round"/>
  <path d="M146 203V230" stroke="#34BDE4" stroke-width="4" stroke-linecap="round"/>
  <circle cx="146" cy="238" r="7" stroke="#34BDE4" stroke-width="4"/>
  <path d="M170 203V226H198" stroke="#34BDE4" stroke-width="4" stroke-linecap="round" stroke-linejoin="round"/>
  <circle cx="208" cy="226" r="7" stroke="#34BDE4" stroke-width="4"/>
  <path d="M128 47V205" stroke="#F4F4F2" stroke-width="3"/>
</svg>
